# xmcd CD database file
# Copyright (C) 1993-1998 Ti Kan
#
# Track frame offsets:
# 150
# 19913
# 32683
# 47728
# 60970
# 76708
# 91680
# 106038
# 118405
# 132180
# 147975
# 158523
# 173010
#
# Disc length: 2401 seconds
#
# Revision: 0
# Processed by: cddbd v1.4b41PL1 Copyright (c) Steve Scherf et al.
# Submitted via: inCDius 1.1
#
DISCID=95095f0d
DTITLE=Peter Elman - Durango  Saloon
DYEAR=1900
DGENRE=
TTITLE0=Jesse's Last Ride
TTITLE1=Western Waltz
TTITLE2=Fall is All Around
TTITLE3=Durango Saloon
TTITLE4=Colorado Crossing
TTITLE5=Turquoise Eyes
TTITLE6=Mountain Dunes
TTITLE7=Ginny's Bayou
TTITLE8=Sunset Over New Orleans
TTITLE9=Our Dance
TTITLE10=The Last Cowboy
TTITLE11=Magic Girl
TTITLE12=Durango Saloon (Reprise)
EXTD=
EXTT0=
EXTT1=
EXTT2=
EXTT3=
EXTT4=
EXTT5=
EXTT6=
EXTT7=
EXTT8=
EXTT9=
EXTT10=
EXTT11=
EXTT12=
PLAYORDER=
